<?xml version="1.0" encoding="utf-8"?>
<!-- Generator: Adobe Illustrator 27.5.0, SVG Export Plug-In . SVG Version: 6.00 Build 0)  -->
<svg version="1.1" xmlns="http://www.w3.org/2000/svg" xmlns:xlink="http://www.w3.org/1999/xlink" x="0px" y="0px"
	 viewBox="0 0 500 500" style="enable-background:new 0 0 500 500;" xml:space="preserve">
<g id="Character">
	<g id="Character_00000099644215665118074130000011742922143797839236_">
		
			<line id="Table" style="fill:#FFFFFF;stroke:#303030;stroke-width:2;stroke-linecap:round;stroke-linejoin:round;stroke-miterlimit:10;" x1="20.87" y1="356.327" x2="479.13" y2="356.327"/>
		<g>
			<g id="Arm_00000160910234958035275900000002444967506860815039_">
				<g>
					<path style="fill:#FFCCCC;" d="M277.717,249.142c-2.71-6.871-4.868-12.512-5.738-15.91c-4.373-17.066-6.915-28.198-9.276-36.94
						c-2.36-8.742-5.997-14.308-10.508-20.683c-4.755-6.72-8.959-2.382-8.959-2.382s-3.512-6.57-7.293-4.684
						c-3.781,1.885-1.448,6.762-1.448,6.762s-2.631-1.873-5.431,2.929c-1.4,2.4-1.66,4.022-0.054,12.344
						c1.313,6.803,4.502,20.958,3.49,26.442c-1.012,5.484-7.736-0.429-11.997-4.546c-4.261-4.117-9.354-3.592-9.794-0.107
						c-0.44,3.485,2.682,12.621,11.41,20.137c15.646,13.474,21.349,18.46,23.295,30.492l2.452,22.836
						c-0.668-0.738-2.118-2.034-5.081-4.308c-20.429-15.677-20.429-19.397-42.161-26.332v70.812c0,0,32.295,19.722,65.492,31.701
						c15.632,5.641,28.16,7.434,35.487-1.68C315.467,338.777,286.579,269.335,277.717,249.142z"/>
				</g>
				<path style="fill:#00826F;" d="M198.941,253.354c10.72,2.62,18.732,6.464,24.283,10.701
					c5.552,4.237,24.435,19.866,24.435,19.866l0.304,2.833l0.829,7.654c0,0-4.822,4.565-9.205,14.061
					c-4.383,9.496-6.701,31.652-4.446,36.06l-44.67-19.697L198.941,253.354z"/>
				<path style="fill:none;stroke:#303030;stroke-width:2;stroke-linecap:round;stroke-linejoin:round;stroke-miterlimit:10;" d="
					M259.957,197.015c-0.823-2.455-2.089-4.237-6.657-12.396c-0.529-0.944-1.208-1.982-2.277-2.144
					c-0.889-0.134-1.756,0.414-2.329,1.107c-1.596,1.93-1.437,4.76-0.796,7.18c2.147,8.112,6.288,17.13,4.37,23.953
					c-0.819,2.914-2.67,5.22-3.561,7.323c-2.516,5.938-0.919,13.376,3.813,17.757"/>
				<path style="fill:none;stroke:#303030;stroke-width:2;stroke-linecap:round;stroke-linejoin:round;stroke-miterlimit:10;" d="
					M243.236,173.226c-1.12,2.458,1.891,10.92,4.204,17.833"/>
				<path style="fill:none;stroke:#303030;stroke-width:2;stroke-linecap:round;stroke-linejoin:round;stroke-miterlimit:10;" d="
					M234.494,175.305c1.062,4.028,5.81,23.314,5.81,23.314"/>
				<path style="fill:none;stroke:#303030;stroke-width:2;stroke-linecap:round;stroke-linejoin:round;stroke-miterlimit:10;" d="
					M247.963,286.754c1.845,19.044,4.431,32.596,13.075,46.644"/>
			</g>
			<g id="Head_00000168104979370041961620000001535995766201831074_">
				<g id="Hair_00000047765246428478846390000014478084021868139939_">
					
						<ellipse transform="matrix(0.0465 -0.9989 0.9989 0.0465 -12.6177 338.9166)" style="fill:#303030;" cx="171.229" cy="176.068" rx="47.396" ry="49.624"/>
					<g>
						<path style="fill:#303030;" d="M235.515,231.904c0.937,6.926-2.456,14.65-8.348,19.158
							c-7.103,5.434-17.814,6.649-28.639,2.111c3.148,10.974,10.117,24.511,4.572,34.49c-2.59,4.66-6.224,8.958-10.892,11.635
							c-5.047,2.894-11.327,1.905-16.997,1.787c-14.022-0.29-27.939-2.436-41.661-5.222c-19.358-3.93-40.499-11.527-48.193-31.446
							c-5.475-14.174,5.811-31.278,15.16-41.506c5.066-5.542,11.211-10.532,13.809-17.577c2.643-7.166,1.113-15.091,0.191-22.674
							c-0.642-5.283-0.972-10.605-0.987-15.927c-0.028-10.095,1.866-20.968,10.045-27.736c7.243-5.993,14.769-4.633,23.131-2.458
							c13.247-14.446,55.695-15.292,81.162,35.767C224.734,210.655,233.604,217.765,235.515,231.904z"/>
					</g>
					<path style="fill:none;stroke:#303030;stroke-width:2;stroke-linecap:round;stroke-linejoin:round;stroke-miterlimit:10;" d="
						M229.092,170.554c-1.692,10.233-3.645,19.812,2.45,33.86c4.159,9.585,14.338,29.604,5.057,43.627
						c-5.359,8.096-19.461,15.708-38.07,5.132"/>
				</g>
				<path style="fill:#FFCCCC;" d="M164.841,140.605c-32.947,5.94-30.324,42.46-30.324,42.46c1.785,4.415,1.488,4.756,2.147,9.439
					c-3.145-5.081-8.196-9.384-14.258-10.445c-6.061-1.06-12.982,1.849-15.086,7.359c-2.08,5.447,1.094,11.897,6.24,15.04
					c5.146,3.142,12.528,4.023,19.525,1.244l0.009-0.004c1.742,5.142,5.678,10.49,11.567,14.701l-12.542,21.472l-13.604-1.742
					c0,0,6.742,28.055,38.53,30.468s27.453-18.517,27.453-18.517l-12.137-3.866l3.337-17.361c1.656,0.1,3.217,0.121,4.655,0.039
					c10.336-0.066,40.977-6.554,39.654-45.985c-0.266-7.917-2.18-15.341-5.221-21.874l-0.002,0.001
					C201.807,136.54,172.762,138.392,164.841,140.605z"/>
				<g>
					<path style="fill:#303030;" d="M153.804,223.742c0,0,6.964,6.071,21.893,7.111l-1.035,6.11
						C174.662,236.963,158.436,233.661,153.804,223.742z"/>
					<path style="fill:none;stroke:#303030;stroke-width:2;stroke-linecap:round;stroke-linejoin:round;stroke-miterlimit:10;" d="
						M187.586,163.965c-0.069,12.315,5.423,20.982,4.233,26.366c-0.794,3.592-4.863,3.608-7.815,3.697"/>
					<g>
						<path style="fill:none;stroke:#303030;stroke-width:2;stroke-linecap:round;stroke-linejoin:round;stroke-miterlimit:10;" d="
							M200.21,160.54c6.549-0.247,14.004,2.354,16.21,5.641"/>
						<path style="fill:#D48983;" d="M193.524,181.092c-0.846-5.399,5.832-11.815,15.061-10.317c9.246,1.501,9.87,6.918,7.272,8.981
							c-2.597,2.063-3.264-0.161-6.095-1.975C206.933,175.968,196.534,175.602,193.524,181.092z"/>
						<g>
							<path style="fill:#FFFFFF;" d="M213.866,180.895c-0.838-1.838-5.405-3.936-9.42-4.274c-4.015-0.337-8.998,1.722-10.234,4.568
								C195.678,186.847,208.409,188.598,213.866,180.895z"/>
							<path style="fill:#303030;" d="M210.403,185.364c-1.96,1.99-5.248,1.953-7.345-0.084c-2.097-2.037-2.208-5.301-0.248-7.292
								c1.96-1.991,5.249-1.953,7.345,0.084C212.252,180.109,212.363,183.373,210.403,185.364z"/>
							<polygon style="fill:#FFFFFF;" points="202.508,177.737 206.607,181.676 200.936,180.19 							"/>
							
								<path style="fill:none;stroke:#303030;stroke-width:2;stroke-linecap:round;stroke-linejoin:round;stroke-miterlimit:10;" d="
								M194.211,181.189c1.863-5.495,14.871-6.278,19.654-0.294"/>
						</g>
						<path style="fill:none;stroke:#303030;stroke-width:2;stroke-linecap:round;stroke-linejoin:round;stroke-miterlimit:10;" d="
							M217.716,178.451c-0.736,1.385-2.299,2.286-3.866,2.228"/>
					</g>
					<g>
						<path style="fill:#D48983;" d="M177.317,178.541c0.972-5.378-5.553-11.949-14.815-10.668
							c-9.278,1.283-10.03,6.684-7.481,8.808c2.548,2.124,3.267-0.084,6.14-1.831C164.032,173.103,174.436,172.982,177.317,178.541z
							"/>
						<g>
							<path style="fill:#FFFFFF;" d="M156.986,177.866c0.881-1.818,5.496-3.808,9.518-4.051c4.022-0.243,8.955,1.933,10.124,4.807
								C175.028,184.244,162.26,185.695,156.986,177.866z"/>
							<path style="fill:#303030;" d="M173.449,182.176c-1.903,2.045-5.191,2.1-7.345,0.123c-2.153-1.977-2.356-5.237-0.453-7.282
								c1.903-2.045,5.192-2.1,7.345-0.123C175.15,176.87,175.352,180.131,173.449,182.176z"/>
							<polygon style="fill:#FFFFFF;" points="165.343,174.773 169.551,178.596 163.84,177.27 							"/>
							
								<path style="fill:none;stroke:#303030;stroke-width:2;stroke-linecap:round;stroke-linejoin:round;stroke-miterlimit:10;" d="
								M176.628,178.621c-1.734-5.537-14.719-6.625-19.642-0.755"/>
						</g>
						<path style="fill:none;stroke:#303030;stroke-width:2;stroke-linecap:round;stroke-linejoin:round;stroke-miterlimit:10;" d="
							M153.193,175.332c0.703,1.401,2.245,2.339,3.812,2.318"/>
						<path style="fill:none;stroke:#303030;stroke-width:2;stroke-linecap:round;stroke-linejoin:round;stroke-miterlimit:10;" d="
							M175.885,157.469c-6.083-1.03-15.298,0.395-20.814,4.612"/>
					</g>
					<g>
						<path style="fill:none;stroke:#303030;stroke-width:2;stroke-linecap:round;stroke-linejoin:round;stroke-miterlimit:10;" d="
							M114.841,189.846c1.517-0.811,5.046-1.15,8.404,0.196c3.357,1.346,5.909,4.409,6.525,7.833"/>
						<path style="fill:none;stroke:#303030;stroke-width:2;stroke-linecap:round;stroke-linejoin:round;stroke-miterlimit:10;" d="
							M120.31,194.32c1.117-0.591,4.963-1.973,8.271,0.362"/>
					</g>
					<path style="fill:none;stroke:#303030;stroke-width:2;stroke-linecap:round;stroke-linejoin:round;stroke-miterlimit:10;" d="
						M166.095,199.234c3.389,3.266,9.973,5.654,15.582,5.101"/>
				</g>
				<path style="fill:#303030;" d="M225.201,187.831c-9.976-44.502-44.214-51.812-50.288-51.387
					c-2.536,0.177-10.81,1.857-11.227,5.369c-1.178,9.94-4.473,16.537-10.071,24.836c-5.599,8.299-13.771,15.008-23.316,18.023
					c-1.733-11.923,5.01-38.245,12.583-47.615c-0.294-9.3,13.264-19.846,43.401-14.883c22.661,3.731,49.385,17.269,48.127,49.094
					C234.137,178.773,230.44,183.61,225.201,187.831z"/>
				<g id="Earphones">
					<g>
						<g>
							<path style="fill:#303030;" d="M119.18,168.002c1.218,0.168,5.87,0.812,7.088,0.981c9.13,1.263,15.26,11.478,13.691,22.815
								c-1.568,11.337-10.242,19.503-19.372,18.24c-1.218-0.168-5.87-0.812-7.088-0.981c-9.13-1.263-15.26-11.478-13.691-22.814
								C101.377,174.905,110.05,166.739,119.18,168.002z"/>
						</g>
						
							<ellipse transform="matrix(0.1371 -0.9906 0.9906 0.1371 -86.355 277.9326)" style="fill:#F55571;" cx="116.34" cy="188.529" rx="20.723" ry="16.689"/>
					</g>
					
						<path style="fill:#FFFFFF;stroke:#303030;stroke-width:2;stroke-linecap:round;stroke-linejoin:round;stroke-miterlimit:10;" d="
						M175.124,121.939c0,0-13.378,0.08-18.883,1.315c-17.563,3.941-39.09,18.56-42.279,52.805
						c-3.411,1.706-6.192,5.931-6.919,11.183c-1.011,7.307,2.332,13.807,7.466,14.518c5.135,0.71,10.117-4.638,11.128-11.945
						c0.697-5.039-0.677-9.693-3.281-12.33C126.369,138.607,155.245,127.194,175.124,121.939z"/>
					<path style="fill:none;stroke:#303030;stroke-width:2;stroke-linecap:round;stroke-linejoin:round;stroke-miterlimit:10;" d="
						M111.592,187.872c-0.584,4.222,1.068,7.939,3.69,8.302c2.622,0.363,5.221-2.766,5.806-6.988
						c0.584-4.222-1.068-7.939-3.69-8.302C114.776,180.521,112.177,183.65,111.592,187.872z"/>
				</g>
			</g>
			<g id="Chest_00000109751927826970499380000017736095712983164560_">
				<g>
					
						<path style="fill:#FFFFFF;stroke:#303030;stroke-width:2;stroke-linecap:round;stroke-linejoin:round;stroke-miterlimit:10;" d="
						M83.432,355.053l132.976,1.274h1.893c22.267-33.226-1.161-72.701-19.136-103l-19.918-4.822
						c6.163,27.682-39.46,24.591-58.873-9.211c-8.595-1.243-20.363-2.332-20.363-2.332c-13.293,25.789-18.36,62.198-16.031,88.789
						C84.853,335.743,84.088,347.111,83.432,355.053z"/>
				</g>
			</g>
			<g id="Arm_00000013156370919090996980000015201793126998645428_">
				<g>
					<path style="fill:#FFCCCC;" d="M101.5,237.506c-30.249-4.052-43.592,23.225-54.111,53.39
						c-18.355,52.641-21.8,75.926-19.797,87.564l52.419-5.112c0,0,16.106-47.266,21.305-64.819S118.379,261.863,101.5,237.506z"/>
					<path style="fill:#00826F;" d="M101.79,236.941c-17.102-2.794-35.446,5.508-44.36,26.998
						c-12.911,31.126-17.202,48.341-17.202,48.341s6.922-3.554,28.3,3.679c21.378,7.233,26.096,16.492,26.096,16.492
						s5.475-16.621,10.382-32.717C111.066,279.849,117.921,253.676,101.79,236.941z"/>
				</g>
				<g>
					<path style="fill:#D48983;" d="M213.673,356.267c-1.502-2.66-2.07-4.577-3.628-9.382c-0.277-0.854-1.754-4.188-2.507-4.676
						c-2.692-1.744-7.07-1.227-11.468-0.875l6.407,16.222c1.098,1.401,2.213,2.819,3.629,3.899c1.415,1.08,3.189,1.803,4.959,1.605
						c1.769-0.198,3.471-1.478,3.803-3.227C215.131,358.447,214.367,357.495,213.673,356.267z"/>
					<g id="Pen">
						<path style="fill:#303030;stroke:#303030;stroke-width:2;stroke-miterlimit:10;" d="M161.136,302.89
							c-2.702,0.166-4.291,1.554-4.931,3.981c-0.169,0.641,0.001,1.326,0.412,1.846l1.148,1.453l6.4-5l-1.151-1.457
							C162.565,303.145,161.86,302.846,161.136,302.89z"/>
						<path style="fill:#00826F;stroke:#00826F;stroke-width:2;stroke-miterlimit:10;" d="M214.114,369.047
							c-0.948,2.727-2.859,4.237-5.731,4.527c-0.305,0.031-0.606-0.107-0.796-0.348l-49.819-63.052
							c-0.411-0.52-0.581-1.205-0.412-1.846c0.641-2.427,2.229-3.815,4.931-3.981c0.724-0.044,1.429,0.254,1.879,0.824
							l49.794,63.021C214.15,368.432,214.215,368.757,214.114,369.047z"/>
						
							<line style="fill:none;stroke:#FFFFFF;stroke-width:2;stroke-linecap:round;stroke-linejoin:round;stroke-miterlimit:10;" x1="165.046" y1="308.529" x2="208.964" y2="363.976"/>
						<path style="fill:#FFFFFF;stroke:#303030;stroke-width:2;stroke-miterlimit:10;" d="M212.595,367.878
							c-2.559,0.274-4.15,1.643-4.972,3.883c-0.224,0.61,0.004,1.295,0.564,1.623l7.104,4.16c0.582,0.341,1.279-0.21,1.082-0.855
							l-2.404-7.878C213.789,368.216,213.214,367.811,212.595,367.878z"/>
						
							<line style="fill:none;stroke:#303030;stroke-width:2;stroke-linecap:round;stroke-linejoin:round;stroke-miterlimit:10;" x1="217.521" y1="379.251" x2="215.534" y2="376.736"/>
					</g>
					<path style="fill:#FFCCCC;" d="M61.863,392.944c16.045,0.352,73.946-6.81,87.571-6.465c14.783,0.374,23.184,0.653,30.405,1.429
						c11.853,1.273,13.264-2.959,14.297-5.818c2.358,0.998,5.126,0.802,6.892-2.638c1.51-2.941,1.51-5.565-0.715-8.029
						c0,0,3.325-0.733,4.531-5.167c1.923-7.071-2.731-8.213-2.731-8.213s2.34-1.685,3.05-5.422c0.759-3.99,0.586-6.838-4.167-9.112
						s-15.527-7.866-20.915-7.12c-5.387,0.747-13.309,6.542-18.063,8.801s-12.359,5.663-19.013,5.426
						c-6.655-0.237-65.503-7.145-65.503-7.145c-26.657-0.133-50.569,18.782-50.119,33.151
						C27.761,388.669,45.818,392.592,61.863,392.944z"/>
					<g>
						<path style="fill:none;stroke:#303030;stroke-width:2;stroke-linecap:round;stroke-linejoin:round;stroke-miterlimit:10;" d="
							M183.183,350.403c8.544,2.137,11.348,3,18.93,7.639"/>
						<path style="fill:none;stroke:#303030;stroke-width:2;stroke-linecap:round;stroke-linejoin:round;stroke-miterlimit:10;" d="
							M183.537,362.663c7.974,2.96,10.67,4.427,17.035,8.854"/>
						<path style="fill:none;stroke:#303030;stroke-width:2;stroke-linecap:round;stroke-linejoin:round;stroke-miterlimit:10;" d="
							M180.248,375.346c5.77,2.547,9.995,3.372,13.888,6.744"/>
					</g>
					<path style="fill:none;stroke:#303030;stroke-width:2;stroke-linecap:round;stroke-linejoin:round;stroke-miterlimit:10;" d="
						M52.742,347.49c11.332-3.774,24.388-4.779,36.24-3.3"/>
				</g>
			</g>
		</g>
	</g>
</g>
<g id="Book_00000181771798228672073890000007968887144831873165_">
	<g id="Book">
		<g>
			
				<rect x="139.352" y="399.173" style="fill:#F55571;stroke:#303030;stroke-width:2;stroke-linecap:round;stroke-linejoin:round;stroke-miterlimit:10;" width="62.606" height="5.762"/>
			
				<rect x="215.417" y="399.173" style="fill:#F55571;stroke:#303030;stroke-width:2;stroke-linecap:round;stroke-linejoin:round;stroke-miterlimit:10;" width="62.606" height="5.762"/>
			
				<rect x="201.958" y="399.173" style="fill:#FFFFFF;stroke:#303030;stroke-width:2;stroke-linecap:round;stroke-linejoin:round;stroke-miterlimit:10;" width="13.458" height="5.762"/>
			
				<rect x="201.958" y="402.667" style="fill:#F55571;stroke:#303030;stroke-width:2;stroke-linecap:round;stroke-linejoin:round;stroke-miterlimit:10;" width="13.458" height="5.762"/>
			
				<rect x="40.597" y="399.173" style="fill:#303030;stroke:#303030;stroke-width:2;stroke-linecap:round;stroke-linejoin:round;stroke-miterlimit:10;" width="98.755" height="5.762"/>
		</g>
		<path style="fill:#FFFFFF;stroke:#303030;stroke-width:2;stroke-linecap:round;stroke-linejoin:round;stroke-miterlimit:10;" d="
			M229.514,382.48c0,0-125.706,0.03-135.252,0c-3.771-0.012-7.864,0.609-12.222,2.011c-18.641,5.999-30.521,5.161-38.098,5.403
			v9.279h185.572V382.48z"/>
		<path style="fill:#FFFFFF;stroke:#303030;stroke-width:2;stroke-linecap:round;stroke-linejoin:round;stroke-miterlimit:10;" d="
			M208.687,392.312c-6.337-7.979-18.411-12.773-33.8-7.82c-18.641,5.999-30.521,5.161-38.098,5.403v9.279h71.898V392.312z"/>
		
			<rect x="43.942" y="389.894" style="fill:#FFFFFF;stroke:#303030;stroke-width:2;stroke-linecap:round;stroke-linejoin:round;stroke-miterlimit:10;" width="92.847" height="9.28"/>
		<path style="fill:none;stroke:#303030;stroke-width:2;stroke-linecap:round;stroke-linejoin:round;stroke-miterlimit:10;" d="
			M162.843,392.866c5.359-0.814,10.46-3.131,15.774-4.263c13.405-2.856,20.798-1.331,29.879,6.813"/>
		<path style="fill:none;stroke:#303030;stroke-width:2;stroke-linecap:round;stroke-linejoin:round;stroke-miterlimit:10;" d="
			M160.699,399.208c6.374,0,12.604-3.387,17.919-4.52c11.908-2.537,19.214-1.49,27.063,4.484"/>
		<g>
			<path style="fill:#FFFFFF;stroke:#303030;stroke-width:2;stroke-linecap:round;stroke-linejoin:round;stroke-miterlimit:10;" d="
				M208.687,392.312c5.733-7.979,16.658-12.773,30.583-7.82c16.866,5.999,27.616,5.161,34.471,5.402v9.28h-65.054V392.312z"/>
			<path style="fill:none;stroke:#303030;stroke-width:2;stroke-linecap:round;stroke-linejoin:round;stroke-miterlimit:10;" d="
				M250.168,392.866c-4.848-0.814-9.464-3.131-14.273-4.263c-12.129-2.856-18.818-1.331-27.035,6.813"/>
			<path style="fill:none;stroke:#303030;stroke-width:2;stroke-linecap:round;stroke-linejoin:round;stroke-miterlimit:10;" d="
				M252.108,399.208c-5.767,0-11.404-3.387-16.213-4.52c-10.774-2.538-17.385-1.49-24.487,4.484"/>
		</g>
		
			<line style="fill:#FFFFFF;stroke:#303030;stroke-width:2;stroke-linecap:round;stroke-linejoin:round;stroke-miterlimit:10;" x1="133.129" y1="393.643" x2="92.048" y2="393.643"/>
		
			<line style="fill:#FFFFFF;stroke:#303030;stroke-width:2;stroke-linecap:round;stroke-linejoin:round;stroke-miterlimit:10;" x1="47.572" y1="395.756" x2="80.06" y2="395.756"/>
	</g>
</g>
<g id="Device">
	<g id="Laptop">
		<g id="Device_00000041977327252372864230000011507634921549395610_">
			<path style="fill:#303030;" d="M217.717,418.322h102.562v9.397H208.32l0,0C208.32,422.529,212.527,418.322,217.717,418.322z"/>
			<path style="fill:#F55571;" d="M301.707,427.719l137.319,0c2.517,0,5.3-2.985,6.215-6.668l25.288-101.727
				c0.915-3.683-0.383-6.668-2.9-6.668l-137.319,0c-2.517,0-5.3,2.985-6.215,6.668l-25.288,101.728
				C297.892,424.734,299.19,427.719,301.707,427.719z"/>
		</g>
		<path style="fill:#FFFFFF;stroke:#303030;stroke-width:2;stroke-linecap:round;stroke-linejoin:round;stroke-miterlimit:10;" d="
			M395.678,372.996c-1.062,5.017-6.851,9.084-12.932,9.084c-6.08,0-10.149-4.067-9.087-9.084c1.062-5.017,6.851-9.084,12.932-9.084
			C392.671,363.912,396.739,367.979,395.678,372.996z"/>
		<g>
			<polygon style="fill:#00826F;" points="461.456,305.318 457.808,319.993 464.436,319.993 468.084,305.318 			"/>
			<polygon style="fill:#FF95FB;" points="449.905,305.318 446.257,319.993 452.885,319.993 456.534,305.318 			"/>
			<polygon style="fill:#303030;" points="438.354,305.318 434.706,319.993 441.335,319.993 444.983,305.318 			"/>
		</g>
		<g id="Note">
			<path style="fill:#00826F;stroke:#303030;stroke-width:2;stroke-linecap:round;stroke-linejoin:round;stroke-miterlimit:10;" d="
				M377.407,378.861h-47.913c-1.474,7.476-2.62,16.944-3.005,24.527c2.02,8.264,9.437,10.685,9.437,10.685h40.414
				C376.34,414.073,373.631,397.23,377.407,378.861z"/>
			
				<polygon style="fill:#00826F;stroke:#303030;stroke-width:2;stroke-linecap:round;stroke-linejoin:round;stroke-miterlimit:10;" points="
				330.705,372.996 330.214,375.372 329.494,378.861 377.407,378.861 378.618,372.996 			"/>
			<path style="fill:#303030;" d="M326.489,403.388c4.234,4.234,11.708,3.773,11.708,3.773l-2.27,6.912
				C335.926,414.073,328.858,412.38,326.489,403.388z"/>
			<g>
				<path style="fill:none;stroke:#303030;stroke-width:2;stroke-linecap:round;stroke-linejoin:round;stroke-miterlimit:10;" d="
					M331.728,391.915c2.185,0.197,4.434-0.988,5.506-2.902c0.234-0.418,0.363-1.047-0.05-1.289
					c-0.142-0.083-0.315-0.092-0.479-0.097c-1.176-0.033-2.468,0.077-3.316,0.893c-0.722,0.696-0.954,1.748-1.092,2.741
					c-0.171,1.229-0.123,2.738,0.942,3.376c0.467,0.279,1.041,0.319,1.582,0.263c1.509-0.154,2.907-1.003,3.849-2.191
					s1.443-2.693,1.541-4.207c0.427,2.616,2.187,4.978,4.571,6.135"/>
				<path style="fill:none;stroke:#303030;stroke-width:2;stroke-linecap:round;stroke-linejoin:round;stroke-miterlimit:10;" d="
					M351.868,389.019c0.191-0.347-0.009-0.81-0.344-1.021c-0.335-0.211-0.757-0.224-1.151-0.18
					c-1.866,0.211-3.524,1.678-3.961,3.505c-0.174,0.727-0.16,1.522,0.181,2.187c0.342,0.664,1.053,1.163,1.799,1.119
					c0.887-0.052,1.566-0.799,2.05-1.545c0.906-1.397,1.5-2.996,1.725-4.646c-0.078,0.732-0.155,1.464-0.233,2.195
					c-0.057,0.534-0.111,1.089,0.064,1.597c0.176,0.508,0.651,0.955,1.187,0.913c0.614-0.047,1.003-0.66,1.293-1.204
					c0.514-0.968,1.029-1.936,1.543-2.904c0.274-0.515,0.772-1.119,1.31-0.893c0.342,0.144,0.468,0.557,0.542,0.921
					c0.355,1.737,0.481,3.52,0.373,5.29c0.508-1.653,1.22-3.243,2.114-4.722c0.165-0.273,0.522-0.572,0.749-0.348
					c0.089,0.088,0.105,0.224,0.116,0.349c0.117,1.317,0.233,2.633,0.35,3.95c1.136-2.336,2.328-4.745,4.323-6.408
					c0.61,2.815-1.08,5.732-0.551,8.563c0.052,0.277,0.136,0.57,0.354,0.749c0.218,0.179,0.605,0.171,0.733-0.08"/>
				<path style="fill:none;stroke:#303030;stroke-width:2;stroke-linecap:round;stroke-linejoin:round;stroke-miterlimit:10;" d="
					M370.155,384.409c-0.302,2.568-0.641,5.131-1.015,7.689"/>
				<path style="fill:none;stroke:#303030;stroke-width:2;stroke-linecap:round;stroke-linejoin:round;stroke-miterlimit:10;" d="
					M369.243,395.8c-0.078,0.252-0.506-0.005-0.437-0.259c0.09-0.328,0.633-0.386,0.789-0.084c0.156,0.302-0.204,0.713-0.524,0.596"
					/>
				<path style="fill:none;stroke:#303030;stroke-width:2;stroke-linecap:round;stroke-linejoin:round;stroke-miterlimit:10;" d="
					M342.714,407.673c0.811-2.32,2.445-4.343,4.544-5.623c-0.231,2.15-0.347,4.313-0.348,6.476c1.192-0.868,2.265-1.9,3.178-3.058
					c0.848,0.27,0.578,2.112,1.458,1.984c0.28-0.041,0.463-0.306,0.61-0.548c0.436-0.715,0.873-1.431,1.309-2.146
					c0.362,0.68,0.724,1.36,1.086,2.04c0.627-0.682,1.254-1.364,1.882-2.046c-0.214,0.799,0.384,1.653,1.158,1.945
					c0.774,0.292,1.651,0.134,2.417-0.179c1.53-0.624,2.799-1.862,3.46-3.376c0.182-0.417,0.251-1.027-0.165-1.212
					c-0.415-0.185-0.818,0.269-1.049,0.661c-0.83,1.411-1.648,3.257-0.668,4.569c0.628,0.841,1.82,1.092,2.849,0.885
					c1.029-0.207,1.937-0.789,2.818-1.359"/>
				<path style="fill:none;stroke:#303030;stroke-width:2;stroke-linecap:round;stroke-linejoin:round;stroke-miterlimit:10;" d="
					M345.174,387.823c-1.142,1.692-2.283,3.384-3.425,5.077c-0.571,0.845-1.156,1.728-1.31,2.736"/>
			</g>
		</g>
	</g>
</g>
<g id="Speech_Bubble_00000106835490750086391210000005782246142380509312_">
	<g id="Speech_Bubble_00000129186079278854696760000003015735560334602143_">
		
			<path id="Speech_Bubble" style="fill:#FFFFFF;stroke:#303030;stroke-width:1.5;stroke-linecap:round;stroke-linejoin:round;stroke-miterlimit:10;" d="
			M38.849,100.369c1.622-8.172,7.227-15.196,14.17-19.801c6.263-4.154,14.623-6.06,23.026-5.973
			c8.402-0.087,16.763,1.819,23.026,5.973c6.943,4.605,12.548,11.629,14.17,19.801c1.611,8.115-0.47,16.563-9.325,22.746
			c0.68,3.57,4.092,5.984,6.961,6.661c1.458,0.344,0.043,2.004-4.832,2.203c-4.435,0.181-8.5-1.189-11.283-4.21
			c-5.541,1.74-11.809,2.44-18.754,2.44c-11.727,0-20.799-1.514-29.07-7.633C38.666,116.456,37.227,108.541,38.849,100.369z"/>
		<path style="fill:#FF95FB;" d="M56.147,98.201c-2.808,0-5.084,2.276-5.084,5.084s2.276,5.084,5.084,5.084
			c2.808,0,5.084-2.276,5.084-5.084S58.955,98.201,56.147,98.201z M76.314,98.201c-2.808,0-5.084,2.276-5.084,5.084
			s2.276,5.084,5.084,5.084c2.808,0,5.084-2.276,5.084-5.084S79.122,98.201,76.314,98.201z M96.481,98.201
			c-2.808,0-5.084,2.276-5.084,5.084s2.276,5.084,5.084,5.084s5.084-2.276,5.084-5.084S99.289,98.201,96.481,98.201z"/>
	</g>
</g>
<g id="Icons">
	<g id="Atom">
		<g>
			<path style="fill:none;stroke:#00826F;stroke-width:2;stroke-linecap:round;stroke-linejoin:round;stroke-miterlimit:10;" d="
				M391.239,256.037c-7.734,17.721-20.197,29.384-27.836,26.05c-7.639-3.334-7.562-20.403,0.173-38.124
				c7.734-17.721,20.197-29.384,27.836-26.05C399.051,221.247,398.973,238.316,391.239,256.037z"/>
			
				<ellipse transform="matrix(0.8047 -0.5937 0.5937 0.8047 -74.7119 272.902)" style="fill:none;stroke:#00826F;stroke-width:2;stroke-linecap:round;stroke-linejoin:round;stroke-miterlimit:10;" cx="377.407" cy="250" rx="15.092" ry="35.01"/>
			
				<ellipse transform="matrix(0.9937 -0.1118 0.1118 0.9937 -25.5901 43.7735)" style="fill:none;stroke:#00826F;stroke-width:2;stroke-linecap:round;stroke-linejoin:round;stroke-miterlimit:10;" cx="377.407" cy="250" rx="35.01" ry="15.092"/>
		</g>
		<path style="fill:#FF95FB;" d="M384.457,251.459c-0.812,3.892-4.626,6.389-8.518,5.576c-3.892-0.812-6.389-4.626-5.576-8.518
			c0.812-3.892,4.626-6.389,8.518-5.576C382.773,243.753,385.269,247.567,384.457,251.459z"/>
	</g>
	<g id="Planet">
		<g>
			<path style="fill:#00826F;stroke:#00826F;stroke-width:2;stroke-linecap:round;stroke-linejoin:round;stroke-miterlimit:10;" d="
				M356.318,144.745c-0.737-1.141-1.55-2.204-2.441-3.2c-7.07-7.927-18.566-11.064-29.055-7.013
				c-11.805,4.559-18.425,16.721-16.456,28.732c0.286,1.755,0.76,3.504,1.426,5.228c0.344,0.891,0.73,1.766,1.164,2.593
				c5.672,0.517,15.41-1.417,25.875-5.458c10.465-4.042,18.966-9.152,22.827-13.351l-0.038-0.148
				c-0.235-0.856-0.518-1.713-0.843-2.554C358.111,147.851,357.287,146.237,356.318,144.745z"/>
			<path style="fill:#FFFFFF;stroke:#00826F;stroke-width:2;stroke-linecap:round;stroke-linejoin:round;stroke-miterlimit:10;" d="
				M342.272,141.369c1.556,4.029-0.447,8.553-4.468,10.106c-4.029,1.556-8.553-0.447-10.109-4.476
				c-1.553-4.021,0.45-8.545,4.479-10.101C336.195,135.345,340.719,137.348,342.272,141.369z"/>
			<path style="fill:#FFFFFF;stroke:#00826F;stroke-width:2;stroke-linecap:round;stroke-linejoin:round;stroke-miterlimit:10;" d="
				M353.362,147.791c0.72,1.865-0.205,3.954-2.061,4.671c-1.865,0.72-3.953-0.205-4.674-2.069c-0.717-1.857,0.208-3.945,2.073-4.665
				C350.556,145.01,352.645,145.934,353.362,147.791z"/>
			<path style="fill:#00826F;stroke:#00826F;stroke-width:2;stroke-linecap:round;stroke-linejoin:round;stroke-miterlimit:10;" d="
				M360.463,161.149c-0.796,9.73-7.004,18.624-16.72,22.376c-9.715,3.752-20.29,1.34-27.419-5.329
				c6.821-1.362,14.628-3.64,22.745-6.775C347.185,168.286,354.497,164.725,360.463,161.149z"/>
		</g>
		<path style="fill:#FFFFFF;stroke:#00826F;stroke-width:2;stroke-linecap:round;stroke-linejoin:round;stroke-miterlimit:10;" d="
			M353.877,141.546l2.441,3.2c2.924,0.191,4.869,0.99,5.422,2.421c0.527,1.365-0.263,3.134-2.083,5.109
			c-3.86,4.198-12.362,9.309-22.827,13.351c-10.465,4.042-20.203,5.975-25.875,5.458c-2.675-0.239-4.449-1.018-4.977-2.383
			c-0.556-1.44,0.35-3.33,2.387-5.437l-0.343-4.01l-0.008,0.003c-10.411,6.384-16.439,12.749-14.895,16.745
			c1.579,4.087,10.732,4.676,23.204,2.193c6.821-1.362,14.628-3.64,22.745-6.775c8.117-3.135,15.428-6.695,21.394-10.272
			c10.904-6.545,17.285-13.133,15.706-17.221C374.626,139.932,365.877,139.274,353.877,141.546z"/>
	</g>
	<g id="DNA">
		<g>
			
				<line style="fill:none;stroke:#303030;stroke-width:2;stroke-linecap:round;stroke-linejoin:round;stroke-miterlimit:10;" x1="430.6" y1="199.415" x2="442.534" y2="187.482"/>
			
				<line style="fill:none;stroke:#303030;stroke-width:2;stroke-linecap:round;stroke-linejoin:round;stroke-miterlimit:10;" x1="427.479" y1="192.805" x2="435.924" y2="184.361"/>
			
				<line style="fill:none;stroke:#303030;stroke-width:2;stroke-linecap:round;stroke-linejoin:round;stroke-miterlimit:10;" x1="417.359" y1="182.684" x2="425.803" y2="174.24"/>
			
				<line style="fill:none;stroke:#303030;stroke-width:2;stroke-linecap:round;stroke-linejoin:round;stroke-miterlimit:10;" x1="430.6" y1="199.415" x2="442.534" y2="187.482"/>
			
				<line style="fill:none;stroke:#303030;stroke-width:2;stroke-linecap:round;stroke-linejoin:round;stroke-miterlimit:10;" x1="437.21" y1="202.536" x2="445.655" y2="194.092"/>
		</g>
		<g>
			
				<line style="fill:none;stroke:#303030;stroke-width:2;stroke-linecap:round;stroke-linejoin:round;stroke-miterlimit:10;" x1="450.239" y1="219.615" x2="462.734" y2="207.12"/>
			
				<line style="fill:none;stroke:#303030;stroke-width:2;stroke-linecap:round;stroke-linejoin:round;stroke-miterlimit:10;" x1="447.468" y1="212.198" x2="455.316" y2="204.349"/>
			
				<line style="fill:none;stroke:#303030;stroke-width:2;stroke-linecap:round;stroke-linejoin:round;stroke-miterlimit:10;" x1="450.239" y1="219.615" x2="462.734" y2="207.12"/>
			
				<line style="fill:none;stroke:#303030;stroke-width:2;stroke-linecap:round;stroke-linejoin:round;stroke-miterlimit:10;" x1="457.656" y1="222.386" x2="465.505" y2="214.538"/>
			
				<line style="fill:none;stroke:#303030;stroke-width:2;stroke-linecap:round;stroke-linejoin:round;stroke-miterlimit:10;" x1="467.214" y1="231.943" x2="475.062" y2="224.095"/>
		</g>
		<g>
			<path style="fill:none;stroke:#00826F;stroke-width:2;stroke-linecap:round;stroke-linejoin:round;stroke-miterlimit:10;" d="
				M410.462,179.838c6.247,6.247,26.327,1.338,32.352,7.363c6.247,6.247,1.338,26.327,7.363,32.352
				c6.247,6.247,26.327,1.338,32.352,7.363"/>
			<path style="fill:none;stroke:#00826F;stroke-width:2;stroke-linecap:round;stroke-linejoin:round;stroke-miterlimit:10;" d="
				M422.957,167.344c6.247,6.247,1.338,26.327,7.363,32.352c6.247,6.247,26.327,1.338,32.352,7.363
				c6.247,6.247,1.338,26.327,7.363,32.352"/>
		</g>
	</g>
	<g id="Chemical_Formula">
		<g>
			
				<polygon style="fill:none;stroke:#00826F;stroke-width:2;stroke-linecap:round;stroke-linejoin:round;stroke-miterlimit:10;" points="
				428.792,116.648 440.924,122.109 451.719,114.332 450.381,101.096 438.25,95.635 427.455,103.412 			"/>
			
				<line style="fill:none;stroke:#00826F;stroke-width:2;stroke-linecap:round;stroke-linejoin:round;stroke-miterlimit:10;" x1="393.871" y1="93.055" x2="381.695" y2="98.418"/>
			
				<line style="fill:none;stroke:#00826F;stroke-width:2;stroke-linecap:round;stroke-linejoin:round;stroke-miterlimit:10;" x1="393.871" y1="93.055" x2="404.602" y2="100.919"/>
			
				<line style="fill:none;stroke:#00826F;stroke-width:2;stroke-linecap:round;stroke-linejoin:round;stroke-miterlimit:10;" x1="416.778" y1="95.557" x2="404.602" y2="100.919"/>
			
				<line style="fill:none;stroke:#00826F;stroke-width:2;stroke-linecap:round;stroke-linejoin:round;stroke-miterlimit:10;" x1="440.924" y1="122.109" x2="442.261" y2="135.345"/>
			
				<polygon style="fill:none;stroke:#00826F;stroke-width:2;stroke-linecap:round;stroke-linejoin:round;stroke-miterlimit:10;" points="
				420.929,82.973 416.782,95.563 427.475,103.398 438.23,95.65 434.185,83.027 			"/>
		</g>
		<path style="fill:#00826F;stroke:#00826F;stroke-width:2;stroke-linecap:round;stroke-linejoin:round;stroke-miterlimit:10;" d="
			M438.329,132.464c1.591-2.172,4.642-2.642,6.813-1.051c2.172,1.591,2.642,4.642,1.051,6.813c-1.591,2.172-4.642,2.642-6.813,1.051
			C437.208,137.686,436.738,134.636,438.329,132.464z"/>
		<path style="fill:#00826F;stroke:#00826F;stroke-width:2;stroke-linecap:round;stroke-linejoin:round;stroke-miterlimit:10;" d="
			M377.763,95.536c1.591-2.172,4.642-2.642,6.813-1.051c2.172,1.591,2.642,4.642,1.051,6.813c-1.591,2.172-4.642,2.642-6.813,1.051
			C376.642,100.758,376.172,97.708,377.763,95.536z"/>
		<path style="fill:#00826F;stroke:#00826F;stroke-width:2;stroke-linecap:round;stroke-linejoin:round;stroke-miterlimit:10;" d="
			M430.095,80.361c1.591-2.172,4.642-2.642,6.813-1.051c2.172,1.591,2.642,4.642,1.051,6.813c-1.591,2.172-4.642,2.642-6.813,1.051
			C428.974,85.583,428.504,82.532,430.095,80.361z"/>
	</g>
	<g id="Math_Formula">
		<path style="fill:#00826F;" d="M223.439,94.265c-0.645,0.615-1.662,0.54-2.245-0.134c-0.485-0.561-0.923-1.178-1.313-1.851
			c-0.682-1.175-1.201-2.461-1.559-3.857c-0.357-1.396-0.536-2.861-0.536-4.394c0-1.532,0.179-2.997,0.536-4.393
			c0.357-1.396,0.877-2.682,1.559-3.857c0.388-0.67,0.824-1.285,1.306-1.844c0.585-0.678,1.608-0.749,2.252-0.127l0.005,0.005
			c0.574,0.554,0.608,1.44,0.121,2.072c-0.644,0.835-1.166,1.787-1.565,2.857c-0.579,1.55-0.869,3.312-0.869,5.287
			c0,1.958,0.29,3.717,0.869,5.275c0.401,1.08,0.925,2.043,1.571,2.89C224.058,92.828,224.017,93.715,223.439,94.265L223.439,94.265
			z"/>
		<path style="fill:#00826F;" d="M231.452,92.305c-1.141,0-2.158-0.281-3.053-0.843c-0.894-0.562-1.601-1.328-2.12-2.299
			c-0.52-0.971-0.778-2.077-0.778-3.32c0-1.243,0.259-2.35,0.778-3.321c0.52-0.971,1.227-1.737,2.12-2.299
			c0.895-0.562,1.912-0.843,3.053-0.843c0.834,0,1.588,0.162,2.261,0.485c0.672,0.324,1.222,0.771,1.647,1.341
			c0.425,0.571,0.664,1.222,0.715,1.954v5.364c-0.051,0.732-0.285,1.384-0.702,1.954c-0.418,0.571-0.967,1.018-1.647,1.341
			C233.044,92.143,232.286,92.305,231.452,92.305z M232.244,88.78c0.834,0,1.507-0.276,2.018-0.83
			c0.511-0.553,0.767-1.255,0.767-2.107c0-0.579-0.115-1.09-0.345-1.533c-0.23-0.443-0.554-0.788-0.971-1.035
			c-0.418-0.247-0.899-0.37-1.443-0.37c-0.545,0-1.026,0.124-1.443,0.37c-0.417,0.247-0.749,0.592-0.996,1.035
			c-0.247,0.443-0.37,0.954-0.37,1.533c0,0.562,0.119,1.064,0.357,1.507c0.238,0.443,0.57,0.792,0.996,1.047
			C231.239,88.653,231.716,88.78,232.244,88.78z M234.875,90.134v-1.431l0.587-3.014l-0.587-3.014v-3.04h3.831v10.498
			c0,1.058-0.858,1.915-1.915,1.915l0,0C235.732,92.05,234.875,91.192,234.875,90.134z"/>
		<path style="fill:#00826F;" d="M241.337,83.506L241.337,83.506c0-0.896,0.726-1.622,1.622-1.622h8.633
			c0.896,0,1.622,0.726,1.622,1.622l0,0c0,0.896-0.726,1.622-1.622,1.622h-8.633C242.063,85.128,241.337,84.402,241.337,83.506z
			 M247.25,77.261h0.076c0.896,0,1.622,0.726,1.622,1.622v9.195c0,0.896-0.726,1.622-1.622,1.622h-0.076
			c-0.896,0-1.622-0.726-1.622-1.622v-9.195C245.628,77.987,246.354,77.261,247.25,77.261z"/>
		<path style="fill:#00826F;" d="M255.844,90.121V73.506h3.908v9.17l-0.639,3.014l0.588,3.014v1.418
			c0,1.065-0.864,1.929-1.929,1.929l0,0C256.707,92.05,255.844,91.186,255.844,90.121z M262.996,92.305
			c-0.835,0-1.601-0.175-2.299-0.523c-0.698-0.349-1.268-0.817-1.712-1.405c-0.442-0.587-0.698-1.248-0.766-1.979v-5.236
			c0.067-0.732,0.323-1.383,0.766-1.954c0.443-0.57,1.014-1.017,1.712-1.341c0.698-0.323,1.464-0.485,2.299-0.485
			c1.175,0,2.218,0.281,3.129,0.843c0.911,0.562,1.626,1.328,2.146,2.299c0.52,0.971,0.779,2.078,0.779,3.321
			c0,1.243-0.26,2.35-0.779,3.32c-0.52,0.971-1.234,1.737-2.146,2.299C265.214,92.024,264.171,92.305,262.996,92.305z
			 M262.306,88.78c0.545,0,1.025-0.128,1.442-0.383c0.418-0.256,0.745-0.604,0.983-1.047c0.238-0.443,0.358-0.945,0.358-1.507
			c0-0.579-0.12-1.09-0.358-1.533c-0.238-0.443-0.565-0.788-0.983-1.035c-0.417-0.247-0.898-0.37-1.442-0.37
			c-0.546,0-1.031,0.124-1.456,0.37c-0.426,0.247-0.754,0.592-0.983,1.035c-0.23,0.443-0.345,0.954-0.345,1.533
			c0,0.579,0.119,1.09,0.358,1.532c0.238,0.443,0.565,0.788,0.983,1.035C261.28,88.657,261.76,88.78,262.306,88.78z"/>
		<path style="fill:#00826F;" d="M271.11,94.265L271.11,94.265c-0.578-0.55-0.618-1.437-0.134-2.071
			c0.647-0.847,1.171-1.81,1.572-2.89c0.578-1.558,0.868-3.316,0.868-5.275c0-1.975-0.29-3.737-0.868-5.287
			c-0.4-1.07-0.922-2.023-1.566-2.857c-0.487-0.632-0.454-1.518,0.121-2.072l0.005-0.005c0.644-0.621,1.667-0.55,2.252,0.127
			c0.483,0.559,0.918,1.174,1.306,1.844c0.682,1.175,1.201,2.461,1.559,3.857c0.358,1.396,0.536,2.861,0.536,4.393
			c0,1.533-0.179,2.998-0.536,4.394c-0.357,1.396-0.877,2.682-1.559,3.857c-0.39,0.673-0.827,1.29-1.312,1.851
			C272.772,94.805,271.756,94.88,271.11,94.265z"/>
		<path style="fill:#00826F;" d="M285.475,81.241h-2.638l1.89-1.879c0.37-0.369,0.664-0.71,0.886-1.021
			c0.221-0.311,0.38-0.626,0.48-0.947c0.099-0.32,0.149-0.669,0.149-1.048c0-0.603-0.133-1.131-0.399-1.582
			c-0.266-0.45-0.64-0.798-1.122-1.041c-0.482-0.243-1.052-0.365-1.71-0.365c-0.757,0-1.428,0.162-2.015,0.486
			c-0.586,0.325-1.068,0.807-1.446,1.447l1.42,1.23c0.279-0.46,0.57-0.791,0.872-0.994c0.302-0.203,0.643-0.304,1.021-0.304
			c0.387,0,0.701,0.106,0.939,0.318c0.239,0.212,0.358,0.502,0.358,0.872c0,0.171-0.031,0.34-0.094,0.507
			c-0.064,0.167-0.162,0.344-0.298,0.534c-0.135,0.189-0.316,0.397-0.541,0.622l-3.425,3.539c-0.153,0.158-0.238,0.369-0.238,0.589
			l0,0c0,0.468,0.379,0.847,0.847,0.847h5.115c0.55,0,0.986-0.49,0.894-1.058C286.344,81.55,285.926,81.241,285.475,81.241z"/>
	</g>
</g>
</svg>
